HIERARCHY
ROOT Hips
{
	OFFSET 0.00000 0.00000 0.00000
	CHANNELS 6 Xposition Yposition Zposition Zrotation Yrotation Xrotation 
	JOINT LHipJoint
	{
		OFFSET 0 0 0
		CHANNELS 3 Zrotation Yrotation Xrotation
		JOINT LeftUpLeg
		{
			OFFSET 1.36337 -1.57426 1.11036
			CHANNELS 3 Zrotation Yrotation Xrotation
			JOINT LeftLeg
			{
				OFFSET 2.38468 -6.55187 0.00000
				CHANNELS 3 Zrotation Yrotation Xrotation
				JOINT LeftFoot
				{
					OFFSET 2.37166 -6.51609 0.00000
					CHANNELS 3 Zrotation Yrotation Xrotation
					JOINT LeftToeBase
					{
						OFFSET 0.29078 -0.79891 2.01393
						CHANNELS 3 Zrotation Yrotation Xrotation
						End Site
						{
							OFFSET 0.00000 -0.00000 1.07924
						}
					}
				}
			}
		}
	}
	JOINT RHipJoint
	{
		OFFSET 0 0 0
		CHANNELS 3 Zrotation Yrotation Xrotation
		JOINT RightUpLeg
		{
			OFFSET -1.36349 -1.57426 1.11036
			CHANNELS 3 Zrotation Yrotation Xrotation
			JOINT RightLeg
			{
				OFFSET -2.29562 -6.30717 0.00000
				CHANNELS 3 Zrotation Yrotation Xrotation
				JOINT RightFoot
				{
					OFFSET -2.40985 -6.62100 0.00000
					CHANNELS 3 Zrotation Yrotation Xrotation
					JOINT RightToeBase
					{
						OFFSET -0.23197 -0.63733 1.92232
						CHANNELS 3 Zrotation Yrotation Xrotation
						End Site
						{
							OFFSET -0.00000 -0.00000 1.01562
						}
					}
				}
			}
		}
	}
	JOINT LowerBack
	{
		OFFSET 0 0 0
		CHANNELS 3 Zrotation Yrotation Xrotation
		JOINT Spine
		{
			OFFSET -0.08565 2.03602 -0.24562
			CHANNELS 3 Zrotation Yrotation Xrotation
			JOINT Spine1
			{
				OFFSET -0.00036 2.05693 0.00216
				CHANNELS 3 Zrotation Yrotation Xrotation
				JOINT Neck
				{
					OFFSET 0 0 0
					CHANNELS 3 Zrotation Yrotation Xrotation
					JOINT Neck1
					{
						OFFSET -0.03664 1.69515 0.31789
						CHANNELS 3 Zrotation Yrotation Xrotation
						JOINT Head
						{
							OFFSET 0.00932 1.70181 -0.46013
							CHANNELS 3 Zrotation Yrotation Xrotation
							End Site
							{
								OFFSET 0.01243 1.77620 -0.19377
							}
						}
					}
				}
				JOINT LeftShoulder
				{
					OFFSET 0 0 0
					CHANNELS 3 Zrotation Yrotation Xrotation
					JOINT LeftArm
					{
						OFFSET 3.74344 0.81315 -0.36647
						CHANNELS 3 Zrotation Yrotation Xrotation
						JOINT LeftForeArm
						{
							OFFSET 4.97185 -0.00000 -0.00000
							CHANNELS 3 Zrotation Yrotation Xrotation
							JOINT LeftHand
							{
								OFFSET 3.35811 -0.00000 0.00000
								CHANNELS 3 Zrotation Yrotation Xrotation
								JOINT LeftFingerBase
								{
									OFFSET 0 0 0
									CHANNELS 3 Zrotation Yrotation Xrotation
									JOINT LeftHandIndex1
									{
										OFFSET 0.62278 -0.00000 0.00000
										CHANNELS 3 Zrotation Yrotation Xrotation
										End Site
										{
											OFFSET 0.50210 -0.00000 0.00000
										}
									}
								}
								JOINT LThumb
								{
									OFFSET 0 0 0
									CHANNELS 3 Zrotation Yrotation Xrotation
									End Site
									{
										OFFSET 0.50976 -0.00000 0.50976
									}
								}
							}
						}
					}
				}
				JOINT RightShoulder
				{
					OFFSET 0 0 0
					CHANNELS 3 Zrotation Yrotation Xrotation
					JOINT RightArm
					{
						OFFSET -3.75385 0.50666 -0.06525
						CHANNELS 3 Zrotation Yrotation Xrotation
						JOINT RightForeArm
						{
							OFFSET -4.96493 -0.00000 -0.00000
							CHANNELS 3 Zrotation Yrotation Xrotation
							JOINT RightHand
							{
								OFFSET -3.34929 -0.00000 0.00000
								CHANNELS 3 Zrotation Yrotation Xrotation
								JOINT RightFingerBase
								{
									OFFSET 0 0 0
									CHANNELS 3 Zrotation Yrotation Xrotation
									JOINT RightHandIndex1
									{
										OFFSET -0.63804 -0.00000 0.00000
										CHANNELS 3 Zrotation Yrotation Xrotation
										End Site
										{
											OFFSET -0.51441 -0.00000 0.00000
										}
									}
								}
								JOINT RThumb
								{
									OFFSET 0 0 0
									CHANNELS 3 Zrotation Yrotation Xrotation
									End Site
									{
										OFFSET -0.52226 -0.00000 0.52226
									}
								}
							}
						}
					}
				}
			}
		}
	}
}
MOTION
Frames: 14
Frame Time: .0083333
-28.4076 16.5824 0.0872 0 0 0 0 0 0 -21 0 0 0 0 0 0 0 0 0 0 0 0 0 0 21 0 0 0 0 0 0 0 0 0 0 0 0 0 0 0 0 0 0 0 0 0 0 -16 0 0 21 0 0 11 0 0 0 -8 0 0 0 0 0 0 0 0 0 0 0 0 0 0 0 0 0 0 0 0 8 0 0 0 0 0 0 0 0 0 0 0 0 0 0 0 0 0
-28.4076 16.5824 0.0872 166.7980 75.5305 169.8580 0.0000 0.0000 0.0000 -16.8723 -0.4531 -9.1874 2.6982 10.1897 29.5931 1.2677 1.7869 -21.9847 0.0245 -1.0106 -2.7781 0.0000 0.0000 0.0000 11.3727 1.3949 -7.4763 -1.5735 -7.9146 22.4549 -1.0545 5.1127 -18.3775 -0.1743 -2.6894 7.4151 -5.9604 -0.2339 -4.6992 0.8110 0.1084 3.3347 4.2117 -0.2092 6.1253 -2.5427 -1.9126 -19.0200 2.6196 -0.9346 41.3696 1.7614 0.2747 19.0478 -0.0000 0.0000 0.0000 -93.9182 -8.6972 9.2469 8.0440 -13.6242 -0.9625 -0.0000 -0.0000 16.6695 15.8452 -11.8864 -3.3457 -7.1250 0.0000 -0.0000 -7.9109 17.7082 5.1796 -0.0000 0.0000 0.0000 84.6173 5.9743 17.5288 -10.3995 17.3620 -1.5921 0.0000 0.0000 1.3335 -10.9289 -28.9307 5.3365 7.1250 -0.0000 -0.0000 22.1262 -57.9572 -7.2486
-28.4104 16.5899 0.0203 166.9350 76.0876 170.0960 0.0000 0.0000 0.0000 -16.9826 -0.4935 -8.7493 2.5596 9.9455 28.8006 1.2247 2.8404 -22.1026 0.0539 -1.4982 -4.1207 0.0000 0.0000 0.0000 11.3018 1.9588 -7.2328 -1.5056 -7.7499 21.9569 -1.0170 4.8950 -18.0528 -0.1757 -2.6998 7.4441 -5.9244 -0.2124 -4.8871 0.8389 0.1382 3.2082 4.2243 -0.1911 6.0949 -2.4239 -1.8666 -19.1292 2.4870 -0.8483 41.5053 1.6997 0.3085 19.1571 0.0000 0.0000 0.0000 -94.0254 -7.6806 13.4295 8.5816 -14.4911 -1.0930 -0.0000 -0.0000 11.3249 17.1188 -10.9059 -3.3350 -7.1250 0.0000 -0.0000 -7.0210 18.6293 4.4438 0.0000 0.0000 0.0000 84.4155 6.0403 16.2679 -10.1935 17.0417 -1.5312 0.0000 0.0000 1.9918 -14.5754 -29.7244 7.3464 7.1250 -0.0000 -0.0000 18.9220 -59.5081 -6.8540
-28.4168 16.5830 -0.0489 167.8760 76.5944 170.9930 0.0000 0.0000 0.0000 -16.9248 -0.4655 -8.3544 2.4770 9.7960 28.3185 1.2082 3.0792 -22.0800 0.0190 -0.8903 -2.4471 0.0000 0.0000 0.0000 11.4015 2.3512 -7.0014 -1.4678 -7.6562 21.6747 -0.9935 4.8190 -17.8430 -0.1937 -2.8344 7.8180 -5.7170 -0.2719 -4.9345 0.8727 0.0390 3.1114 4.1325 -0.2289 6.0291 -2.3703 -1.7553 -19.0883 2.5719 -0.7257 41.6225 1.7619 0.3784 19.2140 -0.0000 -0.0000 0.0000 -94.0046 -6.2362 19.0763 9.3242 -15.6756 -1.2863 -0.0000 -0.0000 2.3993 21.5598 -12.1773 -4.7643 -7.1250 0.0000 -0.0000 -3.9334 16.9363 2.6232 -0.0000 -0.0000 0.0000 84.0345 6.2047 15.8446 -10.0415 16.8044 -1.4869 0.0000 0.0000 1.7478 -14.0475 -30.6208 7.2629 7.1250 -0.0000 -0.0000 20.1541 -60.2263 -7.6700
-28.4284 16.5713 -0.1234 168.7030 77.0854 171.7550 0.0000 0.0000 0.0000 -16.9895 -0.2531 -7.9527 2.3904 9.6359 27.8056 1.2537 3.0734 -22.4591 0.0054 -0.4753 -1.3059 0.0000 0.0000 0.0000 11.4252 2.7243 -6.7145 -1.4228 -7.5432 21.3349 -0.9695 4.7332 -17.6257 -0.2021 -2.8945 7.9851 -5.5013 -0.3411 -4.8340 0.8614 -0.0811 2.9659 3.9855 -0.2708 5.8284 -2.2586 -1.6180 -18.9902 2.6461 -0.5779 41.7482 1.8141 0.4673 19.2583 0.0000 0.0000 0.0000 -93.9069 -4.9564 19.5283 10.3506 -17.2861 -1.5775 -0.0000 -0.0000 4.5305 13.8763 0.1140 0.0282 -7.1250 0.0000 -0.0000 -9.9770 30.0187 3.6978 0.0000 0.0000 0.0000 83.8193 6.2409 15.3515 -9.9709 16.6940 -1.4666 0.0000 0.0000 1.5051 -13.5429 -30.9930 7.0705 7.1250 -0.0000 -0.0000 20.9825 -60.4530 -8.1157
-28.4427 16.5643 -0.2006 168.9310 77.4985 171.9450 0.0000 0.0000 0.0000 -17.3223 -0.1152 -7.5705 2.3136 9.4908 27.3430 1.3236 3.4666 -23.2273 0.0016 -0.2554 -0.7016 0.0000 0.0000 0.0000 11.2712 3.1469 -6.4393 -1.3834 -7.4424 21.0327 -0.9437 4.5310 -17.3988 -0.1883 -2.7947 7.7077 -5.4293 -0.4240 -4.6251 0.7960 -0.2139 2.7522 3.8622 -0.3189 5.4959 -2.1063 -1.4686 -18.8046 2.6617 -0.4000 41.8526 1.8350 0.5674 19.2627 -0.0000 -0.0000 0.0000 -93.7502 -3.6506 21.6731 11.0267 -18.3291 -1.7843 -0.0000 -0.0000 2.9110 13.8395 0.8556 0.2108 -7.1250 0.0000 -0.0000 -10.0851 30.7703 3.5548 -0.0000 -0.0000 0.0000 83.7961 5.9978 14.9437 -9.9895 16.7232 -1.4719 0.0000 0.0000 1.6726 -13.2784 -31.0090 6.9318 7.1250 -0.0000 -0.0000 21.2752 -60.4051 -8.2106
-28.4570 16.5644 -0.2783 169.3590 77.8509 172.3160 0.0000 0.0000 0.0000 -17.6919 -0.2902 -7.1034 2.2408 9.3506 26.8983 1.3938 4.2204 -24.1739 0.0010 0.2020 0.5551 0.0000 0.0000 0.0000 11.1835 3.6369 -6.0826 -1.3383 -7.3250 20.6817 -0.9211 4.0784 -17.2256 -0.1573 -2.5558 7.0445 -5.2386 -0.5069 -4.1396 0.6373 -0.3701 2.3817 3.5744 -0.3616 4.8412 -1.9027 -1.3463 -18.5411 2.7145 -0.2659 42.1528 1.8661 0.6736 19.3726 0.0000 -0.0000 0.0000 -93.3399 -2.3050 24.5676 11.3778 -18.8650 -1.8963 -0.0000 0.0000 -0.7968 19.4213 -9.0061 -3.1590 -7.1250 0.0000 -0.0000 -5.3817 20.4597 3.1749 0.0000 -0.0000 0.0000 83.9840 5.4594 14.7092 -10.0319 16.7895 -1.4842 0.0000 0.0000 2.0115 -13.1825 -30.9863 6.8759 7.1250 -0.0000 -0.0000 21.3581 -60.3614 -8.2219
-28.4768 16.5741 -0.3595 169.5210 78.1241 172.4600 0.0000 0.0000 0.0000 -18.1734 -0.6832 -6.6287 2.1667 9.2050 26.4386 1.4247 5.1531 -24.9254 0.0032 0.3646 1.0019 0.0000 0.0000 0.0000 11.0185 4.1342 -5.7234 -1.2881 -7.1916 20.2844 -0.9009 3.4888 -17.1016 -0.1197 -2.2305 6.1432 -5.4483 -0.6065 -4.1728 0.6939 -0.4898 2.4123 3.7416 -0.4314 4.9085 -1.9268 -1.2843 -18.5873 2.6613 -0.1338 42.2360 1.8755 0.7107 19.4338 -0.0000 -0.0000 0.0000 -93.3800 -1.9823 26.1588 11.5416 -19.1136 -1.9496 -0.0000 0.0000 -2.5012 19.8429 -8.3196 -2.9890 -7.1250 0.0000 -0.0000 -5.0762 21.1577 2.9131 -0.0000 -0.0000 0.0000 83.7745 5.4946 14.7658 -10.1605 16.9903 -1.5215 0.0000 0.0000 1.8060 -13.3591 -30.7011 6.9132 7.1250 -0.0000 -0.0000 20.9444 -60.1392 -7.9427
-28.5045 16.5849 -0.4410 169.0940 78.2838 172.0410 0.0000 0.0000 0.0000 -18.7680 -1.1939 -6.1328 2.0855 9.0419 25.9265 1.4306 5.9257 -25.4214 0.0216 0.9480 2.6058 0.0000 0.0000 0.0000 10.6949 4.6848 -5.4118 -1.2460 -7.0774 19.9448 -0.8800 2.8200 -16.9996 -0.1055 -2.0944 5.7667 -5.6527 -0.6748 -4.0744 0.5668 -0.5687 2.3838 3.7177 -0.4718 4.8328 -1.8526 -1.2370 -18.4604 2.7560 -0.1351 42.2242 1.9055 0.7349 19.3894 0.0000 0.0000 0.0000 -93.1967 -1.8065 27.1016 11.6311 -19.2491 -1.9790 -0.0000 0.0000 -2.3879 19.3380 -6.9759 -2.4406 -7.1250 0.0000 -0.0000 -5.4495 22.6013 2.9496 0.0000 0.0000 0.0000 83.8902 5.3801 14.7904 -10.3571 17.2962 -1.5795 0.0000 0.0000 1.4379 -13.5821 -30.1978 6.9286 7.1250 -0.0000 -0.0000 20.3201 -59.7232 -7.4909
-28.5306 16.5903 -0.5253 168.3040 78.5304 171.1830 0.0000 0.0000 0.0000 -19.3814 -1.6230 -5.5048 1.9991 8.8642 25.3715 1.4658 6.4701 -26.0150 0.0743 1.7582 4.8380 0.0000 0.0000 0.0000 10.2917 5.2164 -5.1400 -1.2198 -7.0055 19.7316 -0.8569 2.2366 -16.8789 -0.0980 -2.0189 5.5578 -5.8744 -0.6929 -4.0186 0.3969 -0.5713 2.4419 3.6649 -0.4785 4.8642 -1.8236 -1.2212 -18.4210 2.8861 -0.1820 42.2436 1.9541 0.7383 19.3927 0.0000 -0.0000 0.0000 -92.9501 -1.5975 28.8358 11.4900 -19.0354 -1.9327 -0.0000 0.0000 -0.5257 22.4512 -8.4536 -3.4762 -7.1250 0.0000 -0.0000 -3.1928 20.8505 1.8501 0.0000 -0.0000 0.0000 84.1212 5.2900 14.8266 -10.5894 17.6562 -1.6492 0.0000 0.0000 0.7790 -13.6728 -29.9881 6.9327 7.1250 -0.0000 -0.0000 20.0666 -59.5484 -7.3084
-28.5548 16.5945 -0.6118 166.6950 78.9573 169.4950 0.0000 0.0000 0.0000 -20.1030 -1.8483 -4.9207 1.9147 8.6860 24.8180 1.4817 7.1299 -26.5462 0.0839 1.8683 5.1418 0.0000 0.0000 0.0000 9.7585 5.8563 -4.9169 -1.2117 -6.9829 19.6648 -0.8403 1.7486 -16.8181 -0.0814 -1.8407 5.0656 -6.2545 -0.6729 -4.0357 0.2543 -0.5076 2.5363 3.7347 -0.4612 4.9713 -1.9362 -1.1863 -18.4001 2.9511 -0.1058 42.2996 2.0243 0.7570 19.4201 0.0000 0.0000 0.0000 -92.8206 -1.6976 29.2365 11.6469 -19.2730 -1.9842 -0.0000 0.0000 -1.3128 21.7866 -9.7822 -3.8850 -7.1250 0.0000 -0.0000 -3.7001 19.4728 2.2597 0.0000 0.0000 0.0000 84.2860 4.9689 15.3734 -11.0415 18.3518 -1.7890 0.0000 -0.0000 -0.4359 -13.5384 -30.0960 6.8848 7.1250 -0.0000 -0.0000 20.2889 -59.6183 -7.4276
-28.5820 16.6002 -0.6940 165.0470 79.3961 167.9180 0.0000 0.0000 0.0000 -20.7292 -1.9119 -4.6271 1.8336 8.5105 24.2756 1.4779 7.6956 -26.8880 0.1267 2.2944 6.3200 0.0000 0.0000 0.0000 9.2431 6.4264 -4.9753 -1.2205 -7.0073 19.7371 -0.8255 1.4255 -16.7444 -0.0640 -1.6320 4.4896 -6.6945 -0.6475 -4.1463 0.1573 -0.4299 2.5771 3.8868 -0.4393 5.0751 -2.0069 -1.1303 -18.4167 2.8432 0.0741 42.4125 2.0273 0.7992 19.4901 -0.0000 0.0000 0.0000 -92.6440 -1.6528 30.5268 11.8081 -19.5163 -2.0377 -0.0000 0.0000 -1.8171 21.8146 -10.0088 -3.9794 -7.1250 0.0000 -0.0000 -3.6858 19.2284 2.2710 -0.0000 0.0000 0.0000 84.4252 4.5134 16.2185 -11.6150 19.2248 -1.9737 0.0000 -0.0000 -1.8737 -13.3515 -30.4413 6.8568 7.1250 -0.0000 -0.0000 20.7494 -59.8964 -7.7439
-28.6195 16.6081 -0.7704 164.0870 79.8994 167.1660 0.0000 0.0000 0.0000 -21.0714 -1.7520 -4.5950 1.7590 8.3450 23.7670 1.5014 7.7138 -27.0681 0.2233 3.0421 8.3961 0.0000 0.0000 0.0000 8.8937 6.8409 -5.3824 -1.2372 -7.0534 19.8737 -0.8066 1.2889 -16.5819 -0.0299 -1.1166 3.0697 -6.9582 -0.5930 -4.2407 0.0603 -0.3259 2.5969 3.9422 -0.3970 5.1409 -1.9169 -1.0737 -18.6363 2.5942 0.2514 42.5741 1.9353 0.8438 19.6514 -0.0000 -0.0000 0.0000 -92.2960 -1.6941 32.0221 12.1120 -19.9723 -2.1404 -0.0000 0.0000 -2.6724 21.1573 -9.3282 -3.5896 -7.1250 0.0000 -0.0000 -4.1400 20.0035 2.4804 -0.0000 -0.0000 0.0000 84.6449 4.2543 17.0749 -12.1055 19.9626 -2.1382 0.0000 -0.0000 -3.3503 -13.1037 -30.6576 6.7690 7.1250 -0.0000 -0.0000 21.1789 -60.0392 -7.9856
-28.6702 16.6170 -0.8470 163.1440 80.6654 166.4670 0.0000 0.0000 0.0000 -21.3191 -1.4954 -4.7280 1.7012 8.2139 23.3657 1.5415 7.6482 -27.3095 0.1370 2.3854 6.5720 0.0000 0.0000 0.0000 8.6021 7.3379 -6.0045 -1.2523 -7.0946 19.9959 -0.7715 1.2870 -16.2090 -0.0053 -0.4710 1.2941 -6.9446 -0.4168 -4.1893 -0.1161 -0.0833 2.6318 3.7708 -0.2720 5.1180 -1.8416 -0.9921 -19.0051 2.5072 0.3849 42.6617 1.9143 0.8864 19.8109 0.0000 0.0000 0.0000 -91.8910 -2.3554 32.6445 11.9834 -19.7797 -2.0967 -0.0000 0.0000 -3.0117 20.3520 -9.5702 -3.5291 -7.1250 0.0000 -0.0000 -4.7196 19.8029 2.8512 0.0000 0.0000 0.0000 85.0114 4.2021 17.8299 -12.5529 20.6286 -2.2934 0.0000 -0.0000 -4.7492 -12.5466 -30.4784 6.4403 7.1250 -0.0000 -0.0000 21.6219 -59.7442 -8.0087
